<svg enable-background="new 0 0 36 36" height="512" viewBox="0 0 36 36" width="512" xmlns="http://www.w3.org/2000/svg"><path d="m34.904 20.355c-3.782-5.791-3.38-11.727-5.203-14.518s-7.256-7.603-20.093.782-9.572 17.5-7.566 20.569c9.388 14.372 39.561 3.423 32.862-6.833z" fill="#efefef"/><g fill="#a4afc1"><path d="m31 17c-.827 0-1.5-.673-1.5-1.5s.673-1.5 1.5-1.5 1.5.673 1.5 1.5-.673 1.5-1.5 1.5zm0-2c-.275 0-.5.224-.5.5s.225.5.5.5.5-.224.5-.5-.225-.5-.5-.5z"/><path d="m2.945 6.435h2v1h-2z"/><path d="m6.195 8.935h1v2h-1z"/><path d="m6.195 3.185h1v2h-1z"/></g><path d="m26.25 17.75v-9c0-1.105-.895-2-2-2h-12.5c-1.105 0-2 .895-2 2v9 8.305h16.5z" fill="#2fdf84"/><path d="m12 8.75c0-1.105.895-2 2-2h-2.25c-1.105 0-2 .895-2 2v9 8.305h2.25v-8.305z" fill="#00b871"/><path d="m27.25 29.25h-18.5c-1.105 0-2-.895-2-2v-5.5c0-.552.448-1 1-1h2.756c.442 0 .831.29.958.713l1.072 3.575c.127.423.516.713.958.713h9.011c.442 0 .831-.29.958-.713l1.072-3.575c.127-.423.516-.713.958-.713h2.756c.552 0 1 .448 1 1v5.5c.001 1.105-.894 2-1.999 2z" fill="#f3f3f1"/><path d="m25.714 25.037 1.072-3.575c.127-.423.516-.713.958-.713h-2.25c-.442 0-.831.29-.958.713l-1.072 3.575c-.127.423-.516.713-.958.713h2.25c.441 0 .831-.29.958-.713z" fill="#d5dbe1"/><path d="m9 27.25v-5.5c0-.552.448-1 1-1h-2.25c-.552 0-1 .448-1 1v5.5c0 1.105.895 2 2 2h2.25c-1.105 0-2-.895-2-2z" fill="#d5dbe1"/><path d="m18.63 18.5h-2.88v-1.5h2.88c.479 0 .87-.39.87-.87 0-.49-.391-.88-.87-.88h-1.26c-1.307 0-2.37-1.063-2.37-2.37 0-1.317 1.063-2.38 2.37-2.38h2.88v1.5h-2.88c-.479 0-.87.39-.87.87 0 .49.391.88.87.88h1.26c1.307 0 2.37 1.063 2.37 2.37 0 1.317-1.063 2.38-2.37 2.38z"/><path d="m17.25 9.75h1.5v1.5h-1.5z"/><path d="m17.25 17.75h1.5v1.5h-1.5z"/><path d="m27.25 30h-18.5c-1.517 0-2.75-1.233-2.75-2.75v-5.5c0-.965.785-1.75 1.75-1.75h2.756c.779 0 1.453.501 1.677 1.248l1.072 3.574c.031.105.13.178.239.178h9.012c.109 0 .208-.073.239-.178l1.072-3.575c.225-.746.899-1.247 1.677-1.247h2.756c.965 0 1.75.785 1.75 1.75v5.5c0 1.517-1.233 2.75-2.75 2.75zm-19.5-8.5c-.138 0-.25.112-.25.25v5.5c0 .689.561 1.25 1.25 1.25h18.5c.689 0 1.25-.561 1.25-1.25v-5.5c0-.138-.112-.25-.25-.25h-2.756c-.111 0-.208.072-.239.178l-1.072 3.575c-.221.734-.91 1.247-1.677 1.247h-9.012c-.779 0-1.453-.501-1.677-1.248l-1.072-3.574c-.031-.106-.128-.178-.239-.178z"/><path d="m10.5 17.75h-1.5v-9c0-1.517 1.233-2.75 2.75-2.75h12.5c1.517 0 2.75 1.233 2.75 2.75v9h-1.5v-9c0-.689-.561-1.25-1.25-1.25h-12.5c-.689 0-1.25.561-1.25 1.25z"/><path d="m2 28.5h32v1.5h-32z"/></svg>