<svg id="_x31__x2C_5" enable-background="new 0 0 36 36" height="512" viewBox="0 0 36 36" width="512" xmlns="http://www.w3.org/2000/svg"><path d="m35.101 14.816c-3.253 6.104-2.324 11.981-3.891 14.923s-6.551 8.218-20.083 1.008-11.09-16.579-9.365-19.815c8.072-15.15 39.1-6.927 33.339 3.884z" fill="#efefef"/><g fill="#a4afc1"><path d="m26.967 3.248h1v2h-1z" transform="matrix(.707 -.707 .707 .707 5.041 20.666)"/><path d="m31.033 7.313h1v2h-1z" transform="matrix(.707 -.707 .707 .707 3.36 24.737)"/><path d="m30.533 3.571h2v1h-2z" transform="matrix(.707 -.707 .707 .707 6.357 23.49)"/></g><ellipse cx="27.5" cy="15.565" fill="#2fdf84" rx="2" ry="2" transform="matrix(.707 -.707 .707 .707 -2.952 24.004)"/><path d="m18.661 29.354-1.768-1.768c-.391-.391-.391-1.024 0-1.414l1.536-1.536c.375-.375.586-.884.586-1.414v-1.172c0-.53.211-1.039.586-1.414l2.243-2.243c.781-.781 2.047-.781 2.828 0l.595.595c.303.303.5.695.564 1.118l.459 3.064c.093.325.002.674-.237.913l-.006.006c-.478.478-1.291.302-1.528-.331l-.908-3.597-1.182 1.182c-.375.375-.586.884-.586 1.414v1.172c0 .53-.211 1.039-.586 1.414l-1.889 1.889.707.708c.195.195.195.512 0 .707l-.707.707c-.195.195-.512.195-.707 0z" fill="#f3f3f1"/><path d="m17.601 19.808 1.414 1.414 3.536-3.536-1.414-1.414c-.391-.391-1.024-.391-1.414 0l-2.121 2.121c-.392.391-.392 1.024-.001 1.415z" fill="#f3f3f1"/><path d="m17.5 9.5c1.105 0 2-.895 2-2 0 1.105.895 2 2 2-1.105 0-2 .895-2 2 0-1.105-.895-2-2-2z" fill="#2fdf84"/><path d="m28.086 16.979c-.781-.781-.781-2.047 0-2.828.126-.126.267-.224.414-.309-.765-.444-1.759-.346-2.414.309-.781.781-.781 2.047 0 2.828.655.655 1.649.753 2.414.309-.147-.085-.288-.183-.414-.309z" fill="#00b871"/><path d="m18.893 27.586c-.391-.391-.391-1.024 0-1.414l1.536-1.536c.375-.375.586-.884.586-1.414v-1.172c0-.53.211-1.039.586-1.414l2.243-2.243c.126-.126.267-.224.414-.309-.765-.444-1.759-.346-2.414.309l-2.243 2.243c-.375.375-.586.884-.586 1.414v1.172c0 .53-.211 1.039-.586 1.414l-1.536 1.536c-.391.391-.391 1.024 0 1.414l1.768 1.768c.195.195.512.195.707 0l.646-.646z" fill="#d5dbe1"/><path d="m26.171 22.381-.56-2.22-1.182 1.182c-.161.161-.285.35-.381.551l.47 1.865c.238.633 1.05.809 1.528.331l.006-.006c.239-.239.329-.588.237-.913z" fill="#d5dbe1"/><path d="m19.601 19.808c-.391-.391-.391-1.024 0-1.414l1.828-1.828-.293-.293c-.391-.391-1.024-.391-1.414 0l-2.121 2.121c-.391.391-.391 1.024 0 1.414l1.414 1.414 1-1z" fill="#d5dbe1"/><path d="m27.5 18.065c-.668 0-1.296-.26-1.768-.732s-.732-1.1-.732-1.768.26-1.296.732-1.768c.943-.944 2.592-.944 3.535 0 .473.472.733 1.1.733 1.768s-.26 1.295-.732 1.768c-.473.472-1.1.732-1.768.732zm0-3.5c-.267 0-.518.104-.707.293s-.293.44-.293.707.104.518.293.707c.378.378 1.036.378 1.414 0 .189-.189.293-.44.293-.707s-.104-.518-.293-.707-.44-.293-.707-.293z"/><path d="m19.141 30c-.328 0-.636-.128-.867-.361 0 0 0 0-.001-.001l-1.677-1.692c-.659-.664-.659-1.745 0-2.41l1.456-1.469c.218-.22.338-.514.338-.826v-1.122c0-.711.274-1.379.773-1.882l2.127-2.146c1-1.01 2.748-1.01 3.748 0l.564.569c.402.405.659.919.744 1.487l.435 2.935c.142.475-.016 1.09-.433 1.511-.4.403-.96.567-1.505.453-.547-.118-.991-.503-1.187-1.03l-.561-2.232-.185.187c-.215.217-.338.518-.338.826v1.122c0 .711-.274 1.379-.773 1.882l-1.269 1.28.148.149c.473.478.473 1.255-.001 1.733l-.67.676c-.23.232-.538.361-.866.361zm4.024-11.192c-.305 0-.592.12-.809.338l-2.127 2.146c-.215.217-.338.518-.338.826v1.122c0 .71-.274 1.378-.773 1.882l-1.457 1.47c-.08.081-.08.217 0 .297l1.48 1.494.286-.289-.483-.487c-.29-.292-.29-.763 0-1.056l1.792-1.809c.218-.22.338-.513.338-.826v-1.122c0-.71.274-1.378.773-1.881l1.121-1.131c.19-.192.469-.268.731-.195.261.072.463.278.529.541l.861 3.443c-.007-.033.027-.002.072.007.043.009.084-.003.117-.036.042-.042.056-.096.042-.146l-.456-3.029c-.038-.249-.15-.475-.326-.652l-.564-.569c-.217-.218-.504-.338-.809-.338z"/><path d="m19.265 22.222c-.192 0-.384-.073-.53-.22l-1.414-1.414c-.331-.331-.513-.77-.513-1.237 0-.468.182-.907.513-1.238l2.121-2.121c.683-.682 1.792-.682 2.475 0l1.414 1.415c.293.293.293.768 0 1.061s-.768.293-1.061 0l-1.414-1.415c-.098-.098-.256-.097-.354 0l-2.121 2.122c-.064.064-.073.138-.073.177s.01.113.073.177l1.414 1.414c.293.293.293.768 0 1.061-.147.144-.338.218-.53.218z"/><path d="m15.493 20.998c-1.39 0-2.726-.602-3.704-1.739-1.468-1.705-1.627-4.026-.405-5.915.617-.954.728-2.106.304-3.16s-1.302-1.808-2.408-2.068l-3.432-.808.344-1.46 3.432.808c1.587.373 2.847 1.455 3.456 2.968s.451 3.166-.435 4.535c-1.035 1.599-.495 3.22.282 4.122.776.902 2.3 1.673 4.034.891l.915-.414.619 1.367-.915.414c-.684.308-1.392.459-2.087.459z"/><path d="m18.75 7h1.5v5h-1.5z"/><path d="m17 8.75h5v1.5h-5z"/></svg>