<svg id="effect" height="512" viewBox="0 0 36 36" width="512" xmlns="http://www.w3.org/2000/svg"><path d="m13.411 34.999c6.298-2.859 12.105-1.559 15.14-2.936 3.035-1.378 8.617-6.016 2.28-19.978s-15.841-12.12-19.18-10.605c-15.632 7.095-9.395 38.582 1.76 33.519z" fill="#efefef"/><path d="m24.5 17v.67c0 1.17-.47 2.3-1.29 3.12-.07.07-.13.14-.2.22-.33.43-.51.95-.51 1.49 0 .55-.22 1.05-.59 1.41-.36.37-.86.59-1.41.59h-5c-.55 0-1.05-.22-1.41-.59-.37-.36-.59-.86-.59-1.41 0-.54-.18-1.06-.51-1.49-.07-.08-.13-.15-.2-.22-.82-.82-1.29-1.95-1.29-3.12v-.67c0-1.02.23-1.98.66-2.84.41-.87 1.03-1.63 1.77-2.23 1.12-.89 2.53-1.43 4.07-1.43s2.95.54 4.07 1.43c.18.15.36.3.53.47.51.51.93 1.1 1.24 1.76.43.86.66 1.82.66 2.84z" fill="#f3f3f1"/><g fill="#2fdf84"><circle cx="15.5" cy="16.5" r="1"/><circle cx="20.5" cy="16.5" r="1"/><path d="m29.5 26c0 .83-.67 1.5-1.5 1.5-.24 0-.47-.06-.67-.17.11.2.17.43.17.67 0 .83-.67 1.5-1.5 1.5s-1.5-.67-1.5-1.5c0-.96-.38-1.88-1.06-2.56l-1.53-1.53c.37-.36.59-.86.59-1.41 0-.54.18-1.06.51-1.49l2.43 2.43c.68.68 1.6 1.06 2.56 1.06.83 0 1.5.67 1.5 1.5z"/><path d="m13.93 11.93c-.74.6-1.36 1.36-1.77 2.23l-1.6-1.6c-.68-.68-1.6-1.06-2.56-1.06-.83 0-1.5-.67-1.5-1.5s.67-1.5 1.5-1.5c.24 0 .47.06.67.17-.11-.2-.17-.43-.17-.67 0-.83.67-1.5 1.5-1.5s1.5.67 1.5 1.5c0 .96.38 1.88 1.06 2.56z"/><path d="m14.09 23.91-1.53 1.53c-.68.68-1.06 1.6-1.06 2.56 0 .83-.67 1.5-1.5 1.5s-1.5-.67-1.5-1.5c0-.24.06-.47.17-.67-.2.11-.43.17-.67.17-.83 0-1.5-.67-1.5-1.5s.67-1.5 1.5-1.5c.96 0 1.88-.38 2.56-1.06l2.43-2.43c.33.43.51.95.51 1.49 0 .55.22 1.05.59 1.41z"/><path d="m29.5 10c0 .83-.67 1.5-1.5 1.5-.96 0-1.88.38-2.56 1.06l-1.6 1.6c-.31-.66-.73-1.25-1.24-1.76-.17-.17-.35-.32-.53-.47l1.37-1.37c.68-.68 1.06-1.6 1.06-2.56 0-.83.67-1.5 1.5-1.5s1.5.67 1.5 1.5c0 .24-.06.47-.17.67.2-.11.43-.17.67-.17.83 0 1.5.67 1.5 1.5z"/></g><path d="m27 29.11c-.26.24-.61.39-1 .39-.83 0-1.5-.67-1.5-1.5 0-.96-.38-1.88-1.06-2.56l-1.53-1.53c.37-.36.59-.86.59-1.41 0-.54.18-1.06.51-1.49l1.49 1.49c0 .55-.22 1.05-.59 1.41l1.53 1.53c.68.68 1.06 1.6 1.06 2.56 0 .44.19.84.5 1.11z" fill="#00b871"/><path d="m12.93 12.93c-.3.38-.56.79-.77 1.23l-1.6-1.6c-.68-.68-1.6-1.06-2.56-1.06-.83 0-1.5-.67-1.5-1.5s.67-1.5 1.5-1.5c.24 0 .47.06.67.17-.11-.2-.17-.43-.17-.67 0-.83.67-1.5 1.5-1.5.39 0 .74.15 1 .39-.31.27-.5.67-.5 1.11 0 .24.06.47.17.67-.2-.11-.43-.17-.67-.17-.83 0-1.5.67-1.5 1.5s.67 1.5 1.5 1.5c.96 0 1.88.38 2.56 1.06z" fill="#00b871"/><path d="m8.5 26c0 .83.67 1.5 1.5 1.5.24 0 .47-.06.67-.17-.11.2-.17.43-.17.67 0 .44.19.84.5 1.11-.26.24-.61.39-1 .39-.83 0-1.5-.67-1.5-1.5 0-.24.06-.47.17-.67-.2.11-.43.17-.67.17-.83 0-1.5-.67-1.5-1.5s.67-1.5 1.5-1.5c.96 0 1.88-.38 2.56-1.06l2.43-2.43c.33.43.51.95.51 1.49l-.94.94c-.68.68-1.6 1.06-2.56 1.06-.83 0-1.5.67-1.5 1.5z" fill="#00b871"/><path d="m27 6.89c-.31.27-.5.67-.5 1.11 0 .96-.38 1.88-1.06 2.56l-1.37 1.37c.18.15.36.3.53.47s.32.34.47.53l-1.23 1.23c-.31-.66-.73-1.25-1.24-1.76-.17-.17-.35-.32-.53-.47l1.37-1.37c.68-.68 1.06-1.6 1.06-2.56 0-.83.67-1.5 1.5-1.5.39 0 .74.15 1 .39z" fill="#00b871"/><path d="m16.09 23.91c.36.37.86.59 1.41.59h-2c-.55 0-1.05-.22-1.41-.59-.37-.36-.59-.86-.59-1.41 0-.54-.18-1.06-.51-1.49-.07-.08-.13-.15-.2-.22-.82-.82-1.29-1.95-1.29-3.12v-.67c0-1.02.23-1.98.66-2.84.41-.87 1.03-1.63 1.77-2.23 1.12-.89 2.53-1.43 4.07-1.43.34 0 .67.03 1 .08-1.15.18-2.2.66-3.07 1.35-.74.6-1.36 1.36-1.77 2.23-.43.86-.66 1.82-.66 2.84v.67c0 1.17.47 2.3 1.29 3.12.07.07.13.14.2.22.33.43.51.95.51 1.49 0 .55.22 1.05.59 1.41z" fill="#d5dbe1"/><path d="m20.5 25.25h-5c-1.517 0-2.75-1.233-2.75-2.75 0-.444-.173-.862-.487-1.177-.976-.976-1.513-2.272-1.513-3.651v-.672c0-3.998 3.252-7.25 7.25-7.25s7.25 3.252 7.25 7.25v.672c0 1.379-.537 2.676-1.513 3.651-.314.314-.487.732-.487 1.177 0 1.517-1.233 2.75-2.75 2.75zm-2.5-14c-3.171 0-5.75 2.579-5.75 5.75v.672c0 .979.381 1.898 1.073 2.591.598.598.927 1.393.927 2.237 0 .689.561 1.25 1.25 1.25h5c.689 0 1.25-.561 1.25-1.25 0-.845.329-1.64.927-2.237.692-.692 1.073-1.612 1.073-2.591v-.672c0-3.171-2.579-5.75-5.75-5.75z"/><path d="m15.75 21.5h1.5v3h-1.5z"/><path d="m18.75 21.5h1.5v3h-1.5z"/><path d="m15.5 18.25c-.965 0-1.75-.785-1.75-1.75s.785-1.75 1.75-1.75 1.75.785 1.75 1.75-.785 1.75-1.75 1.75zm0-2c-.138 0-.25.112-.25.25 0 .275.5.275.5 0 0-.138-.112-.25-.25-.25z"/><path d="m20.5 18.25c-.965 0-1.75-.785-1.75-1.75s.785-1.75 1.75-1.75 1.75.785 1.75 1.75-.785 1.75-1.75 1.75zm0-2c-.138 0-.25.112-.25.25 0 .275.5.275.5 0 0-.138-.112-.25-.25-.25z"/><path d="m26 30.25c-1.24 0-2.25-1.01-2.25-2.25 0-.767-.298-1.487-.84-2.029l-1.53-1.53 1.061-1.061 1.53 1.53c.825.825 1.279 1.922 1.279 3.09 0 .413.337.75.75.75s.75-.337.75-.75c0-.11-.026-.217-.077-.308-.161-.293-.109-.656.127-.893.237-.237.599-.288.893-.127.09.052.197.078.307.078.413 0 .75-.337.75-.75s-.337-.75-.75-.75c-1.168 0-2.265-.454-3.09-1.279l-2.431-2.431 1.061-1.061 2.431 2.431c.542.542 1.263.84 2.029.84 1.24 0 2.25 1.01 2.25 2.25 0 1.16-.883 2.118-2.013 2.237-.119 1.13-1.077 2.013-2.237 2.013z"/><path d="m11.63 14.69-1.601-1.601c-.542-.541-1.262-.839-2.029-.839-1.24 0-2.25-1.01-2.25-2.25 0-1.16.883-2.118 2.013-2.237.119-1.13 1.077-2.013 2.237-2.013 1.24 0 2.25 1.01 2.25 2.25 0 .767.298 1.487.84 2.029l1.37 1.37-1.061 1.061-1.37-1.37c-.825-.825-1.279-1.922-1.279-3.09 0-.413-.337-.75-.75-.75s-.75.337-.75.75c0 .11.026.217.077.308.161.293.11.656-.127.892s-.6.287-.892.127c-.091-.051-.198-.077-.308-.077-.413 0-.75.337-.75.75s.337.75.75.75c1.168 0 2.265.454 3.09 1.279l1.601 1.601z"/><path d="m10 30.25c-1.16 0-2.118-.883-2.237-2.013-1.13-.119-2.013-1.077-2.013-2.237 0-1.24 1.01-2.25 2.25-2.25.767 0 1.487-.298 2.029-.84l2.431-2.431 1.061 1.061-2.431 2.431c-.825.825-1.922 1.279-3.09 1.279-.413 0-.75.337-.75.75s.337.75.75.75c.11 0 .217-.026.308-.077.293-.161.656-.11.892.127s.288.6.127.893c-.051.09-.077.197-.077.307 0 .413.337.75.75.75s.75-.337.75-.75c0-1.168.454-2.265 1.279-3.09l1.53-1.53 1.061 1.061-1.53 1.53c-.542.542-.84 1.263-.84 2.029 0 1.24-1.01 2.25-2.25 2.25z"/><path d="m24.37 14.69-1.06-1.06 1.601-1.601c.825-.825 1.922-1.279 3.09-1.279.413 0 .75-.337.75-.75s-.338-.75-.751-.75c-.11 0-.217.026-.308.077-.294.16-.655.11-.892-.127-.236-.236-.288-.6-.127-.893.051-.09.077-.197.077-.307 0-.413-.337-.75-.75-.75s-.75.337-.75.75c0 1.168-.454 2.265-1.279 3.09l-1.37 1.37-1.061-1.061 1.37-1.37c.542-.542.84-1.262.84-2.029 0-1.24 1.01-2.25 2.25-2.25 1.16 0 2.118.883 2.237 2.013 1.13.119 2.013 1.077 2.013 2.237 0 1.24-1.01 2.25-2.25 2.25-.767 0-1.487.298-2.029.84z"/><path d="m20.5 9c-.827 0-1.5-.673-1.5-1.5s.673-1.5 1.5-1.5 1.5.673 1.5 1.5-.673 1.5-1.5 1.5zm0-2c-.275 0-.5.225-.5.5s.225.5.5.5.5-.225.5-.5-.225-.5-.5-.5z" fill="#a4afc1"/></svg>