<svg id="_x31__x2C_5" height="512" viewBox="0 0 36 36" width="512" xmlns="http://www.w3.org/2000/svg"><path d="m4.167 8.377c0 6.917-3.583 11.667-3.583 15s1.916 10.333 17.249 10.333 17.583-9.417 17.583-13.083c.001-17.167-31.249-24.5-31.249-12.25z" fill="#efefef"/><g fill="#a4afc1"><path d="m30.944 2.467h2v1h-2z" transform="matrix(.707 -.707 .707 .707 7.258 23.457)"/><path d="m26.878 6.533h2v1h-2z" transform="matrix(.707 -.707 .707 .707 3.192 21.773)"/><path d="m31.621 6.033h1v2h-1z" transform="matrix(.707 -.707 .707 .707 4.435 24.773)"/><path d="m27.555 1.967h1v2h-1z" transform="matrix(.707 -.707 .707 .707 6.119 20.707)"/></g><path d="m25.25 26.25h-14.5c-2.209 0-4-1.791-4-4v-8.5c0-2.209 1.791-4 4-4h14.5c2.209 0 4 1.791 4 4v8.5c0 2.209-1.791 4-4 4z" fill="#f3f3f1"/><path d="m19.25 24.25h-2.5v-3.25c0-.69.56-1.25 1.25-1.25.69 0 1.25.56 1.25 1.25z" fill="#2fdf84"/><path d="m9 22.25v-8.5c0-2.209 1.791-4 4-4h-2.25c-2.209 0-4 1.791-4 4v8.5c0 2.209 1.791 4 4 4h2.25c-2.209 0-4-1.791-4-4z" fill="#d5dbe1"/><path d="m19.125 20.474c-.2-.425-.625-.724-1.125-.724-.69 0-1.25.56-1.25 1.25v3.25h2.25v-3.25c0-.19.049-.365.125-.526z" fill="#00b871"/><path d="m25.25 27h-14.5c-2.619 0-4.75-2.131-4.75-4.75v-8.5c0-2.619 2.131-4.75 4.75-4.75h14.5c2.619 0 4.75 2.131 4.75 4.75v8.5c0 2.619-2.131 4.75-4.75 4.75zm-14.5-16.5c-1.792 0-3.25 1.458-3.25 3.25v8.5c0 1.792 1.458 3.25 3.25 3.25h14.5c1.792 0 3.25-1.458 3.25-3.25v-8.5c0-1.792-1.458-3.25-3.25-3.25z"/><path d="m19.25 25h-2.5c-.414 0-.75-.336-.75-.75v-3.25c0-1.103.897-2 2-2s2 .897 2 2v3.25c0 .414-.336.75-.75.75zm-1.75-1.5h1v-2.5c0-.276-.224-.5-.5-.5s-.5.224-.5.5z"/><path d="m12.5 13h1.5v4h-1.5z"/><path d="m22 13h1.5v4h-1.5z"/></svg>