<svg id="Line" height="512" viewBox="0 0 36 36" width="512" xmlns="http://www.w3.org/2000/svg"><path d="m8.377 31.833c6.917 0 11.667 3.583 15 3.583s10.333-1.916 10.333-17.249-9.417-17.584-13.083-17.584c-17.167 0-24.5 31.25-12.25 31.25z" fill="#efefef"/><g fill="#a4afc1"><path d="m1.467 5.699h2v1h-2z" transform="matrix(.707 -.707 .707 .707 -3.661 3.56)"/><path d="m5.533 1.633h2v1h-2z" transform="matrix(.707 -.707 .707 .707 .405 5.244)"/><path d="m1.967 1.31h1v2h-1z" transform="matrix(.707 -.707 .707 .707 -.911 2.421)"/></g><path d="m19.25 20.75.656 1.389c.219.546.666.968 1.224 1.154l.753.251c.817.272 1.368 1.037 1.368 1.897v1.808c0 1.105-.895 2-2 2h-8.5c-1.105 0-2-.895-2-2v-1.808c0-.861.551-1.625 1.368-1.897l.753-.251c.558-.186 1.006-.608 1.225-1.155l.655-1.389h4.498z" fill="#2fdf84"/><path d="m17.338 18.25c-2.049-5.75 1.422-9.399 7.863-11.5.114 1.39.029 2.703-.238 3.91l-2.621.882 1.687 1.696c-1.249 2.472-3.908 4.245-6.691 5.012z" fill="#f3f3f1"/><path d="m16.75 20.75-.66 1.39c-.21.54-.66.97-1.22 1.15l-.75.25c-.82.28-1.37 1.04-1.37 1.9v1.81c0 1.1.9 2 2 2h-2c-1.1 0-2-.9-2-2v-1.81c0-.86.55-1.62 1.37-1.9l.75-.25c.56-.18 1.01-.61 1.22-1.15l.66-1.39z" fill="#00b871"/><path d="m19.14 17.6c-.58.26-1.19.48-1.8.65-2.05-5.75 1.42-9.4 7.86-11.5.02.24.03.49.04.73-4.94 2.08-7.51 5.34-6.1 10.12z" fill="#d5dbe1"/><path d="m21.25 30h-8.5c-1.517 0-2.75-1.233-2.75-2.75v-1.809c0-1.185.756-2.234 1.88-2.609l.754-.25c.349-.117.628-.379.765-.722l.673-1.43 1.357.64-.655 1.389c-.284.712-.897 1.291-1.666 1.546l-.754.25c-.51.17-.854.647-.854 1.186v1.809c0 .689.561 1.25 1.25 1.25h8.5c.689 0 1.25-.561 1.25-1.25v-1.809c0-.539-.344-1.016-.854-1.186l-.752-.25c-.77-.256-1.384-.835-1.685-1.587l-.638-1.348 1.357-.64.655 1.389c.154.383.434.646.783.763l.752.25c1.126.376 1.882 1.424 1.882 2.609v1.809c0 1.517-1.233 2.75-2.75 2.75z"/><path d="m12 20h10v1.5h-10z"/><path d="m17.75 20.75h-1.5c0-2.834 1.264-5.678 3.299-7.422l.463-.397.977 1.139-.463.397c-1.713 1.467-2.776 3.874-2.776 6.283z"/><path d="m17.338 19c-.311 0-.598-.193-.706-.498-.876-2.457-.84-4.679.106-6.605 1.232-2.509 4.001-4.48 8.229-5.859.218-.072.457-.039.647.088.191.127.313.334.332.563.119 1.447.034 2.838-.253 4.134-.057.257-.244.465-.493.549l-1.478.497.837.841c.228.229.283.578.138.867-1.258 2.491-3.935 4.509-7.161 5.397-.065.017-.133.026-.198.026zm7.161-11.213c-3.3 1.216-5.455 2.818-6.414 4.771-.676 1.376-.763 2.974-.259 4.757 2.309-.785 4.217-2.213 5.272-3.949l-1.288-1.296c-.183-.184-.257-.449-.197-.701s.245-.456.49-.539l2.21-.743c.132-.735.195-1.504.186-2.3z"/></svg>